<?xml version="1.0" encoding="utf-8"?>
<!-- Generator: Adobe Illustrator 25.2.0, SVG Export Plug-In . SVG Version: 6.00 Build 0)  -->
<svg version="1.1" id="Layer_1" xmlns="http://www.w3.org/2000/svg" xmlns:xlink="http://www.w3.org/1999/xlink" x="0px" y="0px"
	 viewBox="0 0 1000 307.34" style="enable-background:new 0 0 1000 307.34;" xml:space="preserve">
<style type="text/css">
	.st0{fill:none;}
	.st1{fill:#FFC107;}
	.st2{fill:#0A0820;}
	.st3{fill:#FFFFFF;}
</style>
<g>
	<rect x="0" y="0.16" class="st0" width="1000" height="307.02"/>
	<g>
		<g>
			<path class="st1" d="M267.58,97.6l-79.45-45.86c-0.86-0.54-1.89-0.54-2.75,0L105.92,97.6c-0.86,0.49-1.37,1.4-1.37,2.37v87.12
				l-49.24-28.36c-1.16-0.7-2.48-0.43-3.34,0.43c-0.86,0.86-1.05,2.27-0.43,3.35l26.31,45.32c0.05,0.32,0.16,0.65,0.32,0.97
				l26.65,45.86c0.51,0.86,1.43,1.35,2.4,1.35c0.24,0,0.49,0,0.73-0.11c1.19-0.32,2.02-1.4,2.02-2.65v-56.85l75.4,43.58
				c0.43,0.27,0.89,0.38,1.37,0.38c0.49,0,0.94-0.11,1.38-0.38l79.45-45.92c0.86-0.49,1.37-1.4,1.37-2.37V99.97
				C268.95,99,268.44,98.08,267.58,97.6z"/>
			<g>
				<polygon class="st2" points="236.42,197.45 256.28,185.98 256.28,163.06 236.42,174.53 				"/>
				<polygon class="st2" points="206.64,77.06 186.77,65.59 166.92,77.06 186.77,88.51 				"/>
				<polygon class="st2" points="226.49,88.53 206.62,99.98 226.49,111.45 246.34,99.98 				"/>
				<polygon class="st2" points="186.77,111.44 166.92,122.92 186.77,134.39 206.64,122.92 				"/>
				<polygon class="st2" points="156.98,163.06 176.83,174.51 176.83,151.59 156.98,140.11 				"/>
				<polygon class="st2" points="147.04,88.53 127.17,99.98 147.04,111.45 166.9,99.98 				"/>
				<polygon class="st2" points="117.25,140.12 137.12,151.6 137.12,128.65 117.25,117.18 				"/>
				<polygon class="st2" points="117.25,185.98 137.12,197.45 137.12,174.53 117.25,163.06 				"/>
				<polygon class="st2" points="196.69,174.51 216.56,163.06 216.56,140.11 196.69,151.59 				"/>
				<polygon class="st2" points="196.69,220.4 216.56,208.92 216.56,186 196.69,197.45 				"/>
				<polygon class="st2" points="156.98,208.92 176.83,220.4 176.83,197.45 156.98,186 				"/>
				<path class="st2" d="M246.7,148.71c6.96-4.06,12.27-12.07,12.27-18.32c0-6.25-5.31-8.31-12.27-4.59
					c-1.1,0.59-2.36,1.26-3.64,2.74c-0.24,0.28-0.39,0.61-0.38,0.88c0,0.28,0.17,0.43,0.43,0.42c1.03-0.03,2.73,0.31,2.73,2.55
					c0,2.3-2.32,5.52-5.09,7.06c-2.28,1.27-3.98,1.37-4.53,0.2c-0.12-0.28-0.51-0.19-0.88,0.02c-0.02,0.01-0.02,0.01-0.02,0.01
					c-0.39,0.21-0.76,0.73-0.89,1.12c-0.36,1.17-0.71,2.34-0.71,3.69C233.72,151.09,239.5,152.91,246.7,148.71z"/>
			</g>
		</g>
		<g>
			<path class="st2" d="M520.73,206.64c-11.15,11.06-24.72,16.6-40.8,16.6c-16.03,0-29.6-5.53-40.62-16.6
				c-11.06-11.06-16.6-24.63-16.6-40.62c0-16.08,5.53-29.65,16.6-40.71c11.02-11.06,24.59-16.6,40.62-16.6
				c16.08,0,29.65,5.53,40.8,16.6c11.11,11.06,16.68,24.63,16.68,40.71C537.41,182.01,531.84,195.58,520.73,206.64z M459.02,187.45
				c5.57,5.62,12.53,8.47,20.92,8.47c8.38,0,15.43-2.85,21.05-8.47c5.66-5.62,8.47-12.79,8.47-21.44c0-8.73-2.81-15.82-8.47-21.52
				c-5.62-5.62-12.66-8.47-21.05-8.47c-8.38,0-15.34,2.85-20.92,8.47c-5.57,5.7-8.34,12.79-8.34,21.52
				C450.68,174.66,453.44,181.83,459.02,187.45z"/>
			<path class="st2" d="M645.24,220.21h-32.33l-23.55-32.84l-23.51,32.84h-32.33l39.76-55.32l-38.03-53.16h32.33l21.87,30.6
				l21.95-30.6h32.07l-37.94,53.07L645.24,220.21z"/>
			<path class="st2" d="M711.36,79.67c-10.54-0.86-18.41,0.95-23.55,5.45c-5.1,4.49-7.69,11.93-7.69,22.3v4.32h31.25v13.92h-31.25
				v94.56h-14.3v-94.56h-18.45v-13.92h18.45v-4.32c0-14.17,3.93-24.89,11.84-32.15c7.87-7.35,19.1-10.46,33.71-9.51V79.67z"/>
			<path class="st2" d="M736.77,85.72c-2.03,2.07-4.49,3.03-7.39,3.03c-2.9,0-5.36-0.95-7.39-3.03c-2.03-1.99-3.03-4.49-3.03-7.35
				s0.99-5.36,3.03-7.35c2.03-2.07,4.49-3.03,7.39-3.03c2.9,0,5.36,0.95,7.39,3.03c1.99,1.99,3.03,4.49,3.03,7.35
				S738.76,83.73,736.77,85.72z M722.2,220.21V111.74h14.3v108.47H722.2z"/>
			<path class="st2" d="M773.8,139.91c0,4.84,2.2,8.64,6.61,11.5c4.41,2.85,9.68,5.19,15.9,6.91c6.22,1.82,12.45,3.54,18.67,5.36
				c6.22,1.73,11.45,5.01,15.73,9.59c4.28,4.67,6.44,10.8,6.44,18.32c0,9.25-3.67,16.77-10.98,22.56s-16.72,8.64-28.31,8.64
				c-10.42,0-19.27-2.33-26.53-6.91c-7.3-4.67-12.4-10.63-15.3-17.98l12.14-7.17c2.03,5.62,5.66,10.03,10.93,13.31
				c5.27,3.28,11.54,4.93,18.76,4.93c7.09,0,13.01-1.47,17.81-4.24c4.75-2.85,7.13-7.26,7.13-13.14c0-4.93-2.16-8.82-6.48-11.67
				c-4.36-2.94-9.64-5.27-15.86-7c-6.22-1.82-12.4-3.54-18.63-5.36s-11.5-4.93-15.82-9.51c-4.36-4.58-6.53-10.54-6.53-17.89
				c0-8.82,3.5-16.16,10.5-22.13c7.04-5.88,15.9-8.9,26.58-8.9c8.82,0,16.55,1.99,23.21,5.96s11.58,9.42,14.74,16.16l-11.93,7
				c-4.19-10.2-12.84-15.21-26.02-15.21c-6.22,0-11.58,1.47-16.03,4.32C776.05,130.32,773.8,134.47,773.8,139.91z"/>
			<path class="st2" d="M906.35,109.14c13.14,0,23.51,4.06,31.12,12.1c7.56,7.95,11.37,18.76,11.37,32.41v66.55h-14.3v-66.55
				c0-9.68-2.55-17.2-7.69-22.56c-5.14-5.36-12.4-8.04-21.82-8.04c-10.37,0-18.84,3.28-25.37,9.85c-6.48,6.57-9.77,16.77-9.77,30.51
				v56.79h-14.3V68.43h14.3v60.24C878,115.71,890.14,109.14,906.35,109.14z"/>
			<path class="st2" d="M360.01,108.71c14.61,0,27.1,5.53,37.43,16.6s15.51,24.63,15.51,40.71c0,15.99-5.19,29.56-15.51,40.62
				s-22.82,16.6-37.43,16.6c-15.17,0-26.88-5.27-35.13-15.82v12.79h-27.96V68.43h27.96v56.09
				C333.13,113.98,344.84,108.71,360.01,108.71z M333.34,187.97c5.66,5.7,12.79,8.56,21.48,8.56c8.69,0,15.86-2.85,21.56-8.56
				c5.7-5.7,8.6-13.05,8.6-21.95c0-8.99-2.9-16.34-8.6-22.04c-5.7-5.7-12.88-8.56-21.56-8.56c-8.69,0-15.82,2.85-21.48,8.56
				c-5.62,5.7-8.47,13.05-8.47,22.04C324.87,174.92,327.73,182.26,333.34,187.97z"/>
		</g>
	</g>
</g>
</svg>
